<?xml version="1.0" encoding="iso-8859-1"?>
<!-- Generator: Adobe Illustrator 16.0.0, SVG Export Plug-In . SVG Version: 6.00 Build 0)  -->
<!DOCTYPE svg PUBLIC "-//W3C//DTD SVG 1.1//EN" "http://www.w3.org/Graphics/SVG/1.1/DTD/svg11.dtd">
<svg version="1.1" id="Capa_1" xmlns="http://www.w3.org/2000/svg" xmlns:xlink="http://www.w3.org/1999/xlink" x="0px" y="0px"
	 width="965.025px" height="965.025px" viewBox="0 0 965.025 965.025" style="enable-background:new 0 0 965.025 965.025;"
	 xml:space="preserve">
<g>
	<path d="M72.841,876.512l190.3-97.8c14.7-7.5,24.7-21.8,26.7-38.2l48-185.1l159,98.8l-30.599,166.3c-5,27.2,13,53.2,40.099,58.2
		c3.1,0.6,6.1,0.8,9.1,0.8c23.701,0,44.701-16.899,49.102-41l35.898-194.899c3.301-17.7-3.199-35.801-17-47.301l-152.5-128
		l262.8-19.1l109.801,243.4c7.1,15.699,22.6,25,38.799,25c5.801,0,11.801-1.2,17.5-3.801c21.4-9.699,30.9-34.8,21.301-56.199
		c0,0-125.701-278.5-125.801-278.801c-19-42.1-54.799-160.6-121.1-139l-379.1,123.7c-18.3,6-30.9,22.9-31.3,42.2l-1.5,72.3
		l-28.4,223.8l-166.8,85.801c-24.6,12.6-34.2,42.8-21.6,67.3c8.9,17.2,26.4,27.1,44.5,27.1
		C57.741,882.113,65.541,880.312,72.841,876.512z"/>
	<path d="M897.741,96.112c-62.1-31.7-140-3.9-173.6,62c-14.1,27.6-19.5,58.7-14,88.4c0.5,2.7,2.299,5,4.699,6.3l8.201,4.2
		c2.299,1.2,5,1.4,7.398,0.4c1.4-0.6,3.4-0.7,6.102,0.7c2.1,1.1,4.199,2.6,6.398,4.7c7.301,6.9,11.801,16.1,16.102,25
		c5.1,10.4,10.898,19.1,19.6,26.8c20.9,18.399,53.1,27.6,75.199,5.899c2.301-2.2,4.301-4.6,6.1-7c0.801-1.1,2.301-1.3,3.5-0.6
		c1,0.7,2.102,1.399,3.102,2.1s1.398,1.9,1,3.101c-1.301,3.5-2.602,7.1-3.801,10.6c-2.801,8.8-4.801,18.2-2.9,27.4
		c2,9.699,8.1,18.399,15.4,24.899c6.199,5.5,13.4,8.8,21.1,11.5c2.1,0.8,4.4,0,5.701-1.899c8.5-12.4,39.299-57.7,39.299-57.7
		c1.6-2.3,1.201-5.5-0.9-7.4l-59.1-51.8c-1.4-1.1-1.4-3.2-0.1-4.4c4.5-4,9.199-7,15.1-8.3c14.5-3.3,27.801,2.9,42.201,1.8
		c21.1-1.6,24.398-25.3,25.299-42.4c1-19.2-2.1-38.8-8.6-56.9C945.94,134.512,925.241,110.112,897.741,96.112z M896.741,225.112
		c-4.199,8.3-14.301,11.5-22.6,7.3c-8.301-4.2-11.5-14.3-7.301-22.6c4.201-8.3,14.301-11.5,22.6-7.3
		C897.741,206.712,900.94,216.913,896.741,225.112z"/>
	<path d="M916.042,745.812c-0.301-3.5-2.602-6.5-5.9-7.6c-40-13.7-84-8.8-117.701,17.4c-33.699,26.199-49.299,67.6-45.898,109.699
		c0.299,3.5,2.6,6.5,5.898,7.601c40,13.7,84,8.8,117.701-17.4C903.84,829.312,919.44,788.012,916.042,745.812z"/>
</g>
<g>
</g>
<g>
</g>
<g>
</g>
<g>
</g>
<g>
</g>
<g>
</g>
<g>
</g>
<g>
</g>
<g>
</g>
<g>
</g>
<g>
</g>
<g>
</g>
<g>
</g>
<g>
</g>
<g>
</g>
</svg>
