<?xml version="1.0" encoding="iso-8859-1"?>
<!-- Generator: Adobe Illustrator 16.0.0, SVG Export Plug-In . SVG Version: 6.00 Build 0)  -->
<!DOCTYPE svg PUBLIC "-//W3C//DTD SVG 1.1//EN" "http://www.w3.org/Graphics/SVG/1.1/DTD/svg11.dtd">
<svg version="1.1" id="Capa_1" xmlns="http://www.w3.org/2000/svg" xmlns:xlink="http://www.w3.org/1999/xlink" x="0px" y="0px"
	 width="964.199px" height="964.199px" viewBox="0 0 964.199 964.199" style="enable-background:new 0 0 964.199 964.199;"
	 xml:space="preserve">
<g>
	<path d="M948.1,572.4H933.9c-4.1,30.1-11.1,59.6-21.1,88.299c-0.9,10.801-4,42.102-10.4,76.301H948.1c8.9,0,16.1-7.301,16.1-16.1
		V588.5C964.199,579.6,957,572.4,948.1,572.4z"/>
	<path d="M28.1,572.4h-12c-8.9,0-16.1,7.299-16.1,16.1v132.301c0,8.898,7.3,16.1,16.1,16.1h44.5c-6.4-34.201-9.5-65.5-10.4-76.301
		C40.2,632,32.2,602.5,28.1,572.4z"/>
	<path d="M909.199,510.699C909.199,274.5,717.699,83,481.5,83C245.3,83,53.8,274.5,53.8,510.699c0,20.9,1.5,41.5,4.4,61.602
		c4.1,28.398,11,55.898,20.4,82.299c0,0,2.9,39.4,11.2,81.5c9.4,48,25.8,99.5,52.6,99.5c6,0,12.6-2.6,19.7-8.4
		c9.1-7.398,16.2-14.1,21.7-20.1l14.9,55.5c2.9,10.9,12.9,18.6,24.2,18.6h118.9c0,0,0,0,0.1,0c0,0,0,0,0.101,0h139.6h139.5h0.1
		c0,0,0,0,0.102,0h118.398c11.301,0,21.301-7.6,24.201-18.6l15-55.9c5.5,6.102,12.799,13,22.1,20.5c7.1,5.801,13.699,8.4,19.699,8.4
		c26.9,0,43.301-51.799,52.701-99.9c8.199-41.898,11.1-81,11.1-81c9.4-26.299,16.301-53.799,20.4-82.299
		C907.699,552.301,909.199,531.699,909.199,510.699z M242.1,831l-38.7-143.801h19.9l0,0H294.7L313.2,831H242.1z M456.4,831h-92.6
		l-18.5-143.801h111.1V831z M599.1,831h-92.6V687.199h111.1L599.1,831z M481.5,637.1H248.4V502c31.6-14.9,119.3-50.5,233.7-50.5
		c79.9,0,158,17.1,232.4,51v134.6H481.5z M720.4,831H649.6l18.5-143.801h71.4l0,0h19.6L720.4,831z M793.5,637.199
		c-0.6,0-1.1-0.1-1.699-0.1h-27.102V486.6c0-9.599-5.5-18.299-14.1-22.5c-85.5-41.7-175.799-62.8-268.5-62.8
		c-157.8,0-266.6,60.8-271.2,63.399c-7.8,4.5-12.7,12.801-12.7,21.8v150.6h-27.6c-0.4,0-0.8,0-1.2,0V486.6
		c0-19.299,10.4-37.299,27.3-46.799c3.3-1.9,33.5-18.7,83.4-35c65.3-21.3,133.3-32.2,202-32.2c97.099,0,191.599,22.1,281.099,65.6
		c18.4,9,30.301,28,30.301,48.5V637.199L793.5,637.199z"/>
</g>
<g>
</g>
<g>
</g>
<g>
</g>
<g>
</g>
<g>
</g>
<g>
</g>
<g>
</g>
<g>
</g>
<g>
</g>
<g>
</g>
<g>
</g>
<g>
</g>
<g>
</g>
<g>
</g>
<g>
</g>
</svg>
