<?xml version="1.0" encoding="iso-8859-1"?>
<!-- Generator: Adobe Illustrator 16.0.0, SVG Export Plug-In . SVG Version: 6.00 Build 0)  -->
<!DOCTYPE svg PUBLIC "-//W3C//DTD SVG 1.1//EN" "http://www.w3.org/Graphics/SVG/1.1/DTD/svg11.dtd">
<svg version="1.1" id="Capa_1" xmlns="http://www.w3.org/2000/svg" xmlns:xlink="http://www.w3.org/1999/xlink" x="0px" y="0px"
	 width="934.375px" height="934.375px" viewBox="0 0 934.375 934.375" style="enable-background:new 0 0 934.375 934.375;"
	 xml:space="preserve">
<g>
	<g>
		<path d="M574.538,248.6c2.6-10.9,4-22.3,4-34.1v-0.1c0-5-4.2-9-9.2-9h-208.2c-5,0-9.2,4-9.2,9v0.1c0,11.8,1.4,23.2,4,34.1
			c1,4.2,4.7,7.1,9,7.1h200.601C569.838,255.7,573.538,252.8,574.538,248.6z"/>
		<path d="M378.438,281.7c-4.6,0-7.399,5.1-4.899,9c20.6,32.5,54,53.7,91.699,53.7c37.7,0,71.101-21.2,91.601-53.7
			c2.5-3.9-0.3-9-4.9-9H378.438z"/>
		<path d="M311.938,285.4h6.7c7.6,0,13.8-6.2,13.8-13.8v-75c0-7.2,5.8-13,13-13h239.8c7.2,0,13,5.8,13,13v75
			c0,7.6,6.2,13.8,13.9,13.8h5.5c7.6,0,13.7-6.1,13.7-13.7c0.1-25.5,0.399-78.8,0.399-92.2c0-99.4-74.899-179.5-166.6-179.5
			c-91.8,0-167.2,81.7-167.2,181.1c0,13.5,0.2,65.4,0.2,90.5C298.237,279.3,304.338,285.4,311.938,285.4z"/>
		<path d="M92.538,582.4h72.9v294.799c-0.2,76.102,99,76.102,99,0V547.5c0-2.1,1.7-3.801,3.8-3.801h11.9c8.5,0,15.4,6.9,15.4,15.4
			v81.6c0,8.5,6.899,15.4,15.399,15.4h99.2c3.3,0,5.9-3,5.4-6.299c-5.301-35.9-18-112.9-35.4-158.102
			c-18.3-47.599-40-86.899-55.2-111.599c-4.1-6.7-11.5-10.8-19.399-10.8H197.938c-23.4,0-45.8,10.1-61.1,27.8
			c-9.9,11.5-20.3,27.4-29,49.1c-19.4,48.601-19.4,116-19.1,132.5C88.738,580.801,90.438,582.4,92.538,582.4z"/>
		<path d="M429.838,679.4h-119c-8.5,0-15.4,6.9-15.4,15.4l0.101,226.799c0,6,4.899,10.801,10.8,10.801h160.8h160.8
			c6,0,10.8-4.801,10.8-10.801l0.101-226.799c0-8.5-6.9-15.4-15.4-15.4c0,0-118.8,0-119,0c-6.7,0.799-12.399-6.701-11.6-13.1
			c0.6-4.9,15.5-120.301,39.5-182.9c17.5-45.701,37.899-83.6,53.3-109.3c1.3-2.1-0.3-4.8-2.7-4.8l-115.8-0.101l-115.7,0.101
			c-2.5,0-4,2.7-2.7,4.8c15.4,25.7,35.7,63.6,53.301,109.3c24,62.6,38.899,178,39.5,182.9
			C442.237,672.6,436.737,679.4,429.838,679.4z"/>
		<path d="M609.338,380.1c-15.2,24.8-36.9,64-55.2,111.599c-17.3,45.102-30.1,122.201-35.4,158.102
			c-0.5,3.299,2.101,6.299,5.4,6.299h99.2c8.5,0,15.399-6.9,15.399-15.4v-81.6c0-8.5,6.9-15.4,15.4-15.4h12
			c2.1,0,3.8,1.701,3.8,3.801v329.801c0,76.1,99.2,76.1,99,0V582.4h72.9c2.1,0,3.8-1.701,3.8-3.701c0.3-16.5,0.3-83.898-19.1-132.5
			c-8.7-21.699-19.101-37.6-29-49.1c-15.301-17.7-37.7-27.8-61.101-27.8h-107.7C620.838,369.3,613.538,373.4,609.338,380.1z"/>
	</g>
</g>
<g>
</g>
<g>
</g>
<g>
</g>
<g>
</g>
<g>
</g>
<g>
</g>
<g>
</g>
<g>
</g>
<g>
</g>
<g>
</g>
<g>
</g>
<g>
</g>
<g>
</g>
<g>
</g>
<g>
</g>
</svg>
