<?xml version="1.0" encoding="iso-8859-1"?>
<!-- Generator: Adobe Illustrator 19.0.0, SVG Export Plug-In . SVG Version: 6.00 Build 0)  -->
<svg version="1.1" id="Capa_1" xmlns="http://www.w3.org/2000/svg" xmlns:xlink="http://www.w3.org/1999/xlink" x="0px" y="0px"
	 viewBox="0 0 58.009 58.009" style="enable-background:new 0 0 58.009 58.009;" xml:space="preserve">
<g>
	<g>
		<path d="M40.505,45h-23c-0.553,0-1,0.447-1,1s0.447,1,1,1h23c0.553,0,1-0.447,1-1S41.057,45,40.505,45z"/>
		<path d="M18.504,42h21c0.553,0,1-0.447,1-1s-0.447-1-1-1h-21c-0.553,0-1,0.447-1,1S17.951,42,18.504,42z"/>
		<path d="M18.504,37h21c0.553,0,1-0.447,1-1s-0.447-1-1-1h-21c-0.553,0-1,0.447-1,1S17.951,37,18.504,37z"/>
		<path d="M34.146,27h2.144c2.402,0,4.214-1.72,4.214-4c0-1.226-0.535-2.278-1.393-3c0.858-0.722,1.393-1.774,1.393-3
			c0-2.28-1.812-4-4.214-4h-2.144c-2.402,0-4.214,1.72-4.214,4c0,1.226,0.535,2.278,1.393,3c-0.858,0.722-1.393,1.774-1.393,3
			C29.933,25.28,31.744,27,34.146,27z M34.146,15h2.144c1.101,0,2.214,0.687,2.214,2s-1.113,2-2.214,2h-2.144
			c-1.101,0-2.214-0.687-2.214-2S33.047,15,34.146,15z M34.146,21h2.144c1.101,0,2.214,0.687,2.214,2s-1.113,2-2.214,2h-2.144
			c-1.101,0-2.214-0.687-2.214-2S33.047,21,34.146,21z"/>
		<path d="M21.718,27h2.144c2.402,0,4.214-1.72,4.214-4c0-1.226-0.535-2.278-1.393-3c0.858-0.722,1.393-1.774,1.393-3
			c0-2.28-1.812-4-4.214-4h-2.144c-2.402,0-4.214,1.72-4.214,4c0,1.226,0.535,2.278,1.393,3c-0.858,0.722-1.393,1.774-1.393,3
			C17.504,25.28,19.315,27,21.718,27z M21.718,15h2.144c1.101,0,2.214,0.687,2.214,2s-1.113,2-2.214,2h-2.144
			c-1.101,0-2.214-0.687-2.214-2S20.617,15,21.718,15z M21.718,21h2.144c1.101,0,2.214,0.687,2.214,2s-1.113,2-2.214,2h-2.144
			c-1.101,0-2.214-0.687-2.214-2S20.617,21,21.718,21z"/>
		<path d="M51.499,8.796C49.849,7.621,47.814,7,45.616,7h-0.488c-0.863,0-1.7-0.253-2.492-0.777l-5.649-3.1
			c-0.308-0.167-0.671-0.151-0.971,0.018C34.37,1.206,31.544,0,28.504,0s-5.866,1.206-7.51,3.141
			c-0.362-0.207-0.816-0.178-1.137,0.097l-3.603,3.06C15.545,6.758,14.726,7,13.881,7h-1.488c-2.2,0-4.234,0.621-5.883,1.796
			C4.58,10.17,3.541,11.963,3.504,14v12c0,0.553,0.447,1,1,1h8.166c1.036,5.96,2.396,19.841-1.888,24.308
			c-0.329,0.344-0.371,0.871-0.101,1.262c0.161,0.232,4.02,5.639,13.495,5.431c2.566-0.068,6.739-0.068,9.304,0
			c0.213,0.005,0.424,0.008,0.632,0.008c8.977,0,13.017-5.178,13.188-5.403c0.298-0.392,0.267-0.941-0.074-1.297
			C42.456,46.333,44.718,30.741,45.345,27h8.16c0.553,0,1-0.447,1-1V13.981C54.467,11.963,53.429,10.17,51.499,8.796z M28.504,2
			c2.425,0,4.647,0.904,5.921,2.356l-4.526,3.681c-0.078,0.059-0.169,0.09-0.255,0.132c-0.068,0.033-0.131,0.08-0.202,0.103
			c-0.091,0.029-0.188,0.031-0.282,0.043c-0.072,0.009-0.143,0.032-0.216,0.032c-0.075-0.001-0.149-0.026-0.224-0.037
			c-0.094-0.014-0.189-0.017-0.281-0.048C28.404,8.25,28.374,8.224,28.34,8.21c-0.127-0.053-0.255-0.109-0.37-0.196l-0.154-0.107
			l-5.165-3.623C23.933,2.874,26.12,2,28.504,2z M52.505,25h-7V15c0-0.553-0.447-1-1-1s-1,0.447-1,1v10.904
			c-0.294,1.565-3.467,19.219,1.673,26.074C43.883,53.263,40.18,56.207,33.534,56c-1.297-0.034-3-0.052-4.704-0.052
			S25.421,55.966,24.124,56c-6.651,0.206-10.117-2.725-11.313-3.996c5.169-6.835,1.987-24.534,1.693-26.1V15c0-0.553-0.447-1-1-1
			s-1,0.447-1,1v10h-7V14.019c0.025-1.379,0.754-2.588,2.166-3.594C8.979,9.493,10.612,9,12.393,9h1.488
			c1.26,0,2.479-0.369,3.528-1.068c0.032-0.021,0.063-0.045,0.093-0.07l3.057-2.595c0.031,0.028,0.052,0.065,0.087,0.089
			l6.152,4.279c0.217,0.163,0.453,0.288,0.694,0.395c0.464,0.206,0.959,0.319,1.459,0.319c0.76,0,1.52-0.238,2.153-0.714
			c0.008-0.006,0.016-0.013,0.024-0.019c0.001-0.001,0.002-0.001,0.003-0.002l5.479-4.415l4.988,2.733
			C42.647,8.631,43.868,9,45.127,9h0.488c1.78,0,3.414,0.493,4.723,1.425c1.412,1.006,2.141,2.215,2.166,3.575
			C52.504,14,52.504,25,52.505,25z"/>
	</g>
</g>
<g>
</g>
<g>
</g>
<g>
</g>
<g>
</g>
<g>
</g>
<g>
</g>
<g>
</g>
<g>
</g>
<g>
</g>
<g>
</g>
<g>
</g>
<g>
</g>
<g>
</g>
<g>
</g>
<g>
</g>
</svg>
