<?xml version="1.0" encoding="iso-8859-1"?>
<!-- Generator: Adobe Illustrator 19.0.0, SVG Export Plug-In . SVG Version: 6.00 Build 0)  -->
<svg version="1.1" id="Capa_1" xmlns="http://www.w3.org/2000/svg" xmlns:xlink="http://www.w3.org/1999/xlink" x="0px" y="0px"
	 viewBox="0 0 512 512" style="enable-background:new 0 0 512 512;" xml:space="preserve">
<g>
	<g>
		<path d="M8.441,319.99c-0.663,3.065-1.478,6.44-2.01,9.212C-6.928,398.709,0.909,460.1,26.411,485.589
			C43.652,502.83,77.285,512,118.769,512c19.863,0,41.528-2.109,64.028-6.431c2.774-0.533,6.152-1.348,9.221-2.012L8.441,319.99z"/>
	</g>
</g>
<g>
	<g>
		<path d="M485.589,26.388C460.101,0.9,398.724-6.908,329.203,6.407c-2.77,0.533-6.145,1.348-9.21,2.01l183.566,183.568
			c0.663-3.065,1.478-6.44,2.01-9.21C518.928,113.268,511.091,51.877,485.589,26.388z"/>
	</g>
</g>
<g>
	<g>
		<path d="M285.583,17.427c-47.188,14.579-117.187,50.746-171.326,104.896C60.109,176.46,32.032,238.392,17.451,285.582
			l208.975,208.965c47.186-14.583,109.116-42.658,163.251-96.804c54.15-54.139,90.295-124.16,104.873-171.348L285.583,17.427z
			 M375.272,240.973c-2.93,2.93-6.768,4.395-10.605,4.395c-3.837,0-7.676-1.465-10.605-4.395l-31.815-31.818l-21.215,21.215
			l31.818,31.815c5.859,5.859,5.859,15.352,0,21.211c-2.93,2.93-6.768,4.395-10.605,4.395c-3.837,0-7.676-1.465-10.605-4.395
			l-31.818-31.815l-29.282,29.304l31.824,31.824c5.859,5.859,5.859,15.352,0,21.211c-2.93,2.93-6.768,4.395-10.605,4.395
			c-3.837,0-7.676-1.465-10.605-4.395l-31.824-31.824l-21.216,21.216l31.815,31.818c5.859,5.859,5.859,15.352,0,21.211
			c-2.93,2.93-6.768,4.395-10.605,4.395c-3.837,0-7.676-1.465-10.605-4.395l-31.815-31.818l-25.607,25.607
			c-2.93,2.93-6.768,4.395-10.605,4.395s-7.676-1.465-10.605-4.395c-5.859-5.859-5.859-15.352,0-21.211l25.609-25.609l-31.82-31.827
			c-5.859-5.859-5.859-15.352,0-21.211c5.859-5.859,15.352-5.859,21.211,0l31.82,31.827l21.215-21.215l-31.824-31.824
			c-5.859-5.859-5.859-15.352,0-21.211c5.859-5.859,15.352-5.859,21.211,0l31.824,31.824l29.28-29.302l-31.827-31.82
			c-5.859-5.859-5.859-15.352,0-21.211c5.859-5.859,15.352-5.859,21.211,0l31.827,31.82l21.218-21.218l-31.82-31.827
			c-5.859-5.859-5.859-15.352,0-21.211s15.352-5.859,21.211,0l31.82,31.827l25.602-25.602c5.859-5.859,15.352-5.859,21.211,0
			c5.859,5.859,5.859,15.352,0,21.211l-25.604,25.604l31.815,31.818C381.131,225.621,381.131,235.113,375.272,240.973z"/>
	</g>
</g>
<g>
</g>
<g>
</g>
<g>
</g>
<g>
</g>
<g>
</g>
<g>
</g>
<g>
</g>
<g>
</g>
<g>
</g>
<g>
</g>
<g>
</g>
<g>
</g>
<g>
</g>
<g>
</g>
<g>
</g>
</svg>
