<?xml version="1.0" encoding="iso-8859-1"?>
<!-- Generator: Adobe Illustrator 16.0.0, SVG Export Plug-In . SVG Version: 6.00 Build 0)  -->
<!DOCTYPE svg PUBLIC "-//W3C//DTD SVG 1.1//EN" "http://www.w3.org/Graphics/SVG/1.1/DTD/svg11.dtd">
<svg version="1.1" id="Capa_1" xmlns="http://www.w3.org/2000/svg" xmlns:xlink="http://www.w3.org/1999/xlink" x="0px" y="0px"
	 width="974.784px" height="974.784px" viewBox="0 0 974.784 974.784" style="enable-background:new 0 0 974.784 974.784;"
	 xml:space="preserve">
<g>
	<path d="M855.276,972.784c15.899,0,31.5-7.6,41.2-21.6c15.699-22.7,10-53.9-12.801-69.5l-190.3-131.4l-58.6-151.899l-14.4-275
		l138.2-20.8c16.8-2.5,30.5-14.8,34.8-31.3l37.101-142c28-11.8,51.5-33.1,67.3-60.3c1.899-3.3,1.7-7.5-0.601-10.6
		c-27.5-37.6-70.3-60.7-117.1-58.2s-87,30-110.3,70.2c-1.9,3.3-1.7,7.5,0.6,10.6c18.101,24.8,43,43.3,71.2,52.3l-23.4,89.4
		l-113.5,17.1c-3.399,0.5-299,75.5-299,75.5c-13.6,2.2-25.899,11-32,24.5l-50.2,111.3l-116.9,14.801c-23.3,3-39.7,24.3-36.8,47.5
		c2.7,21.5,21,37.1,42.1,37.1c1.8,0,3.6-0.1,5.4-0.3l140.3-17.9c14.7-1.899,27.3-11.2,33.4-24.7l46.3-102.6l97,197.1l-119.101,74.5
		c-13,8.101-21.5,21.7-23.2,36.9l-22.9,205.8c-3.1,27.4,16.7,52.2,44.2,55.2c1.899,0.2,3.7,0.3,5.6,0.3
		c25.101,0,46.8-18.899,49.601-44.5l20.199-181.7l104.5-65.3l54.7-32.1l57.7,149.5c3.6,9.399,10,17.399,18.3,23.2l203.101,140.1
		C835.576,969.885,845.477,972.784,855.276,972.784z"/>
	<path d="M379.876,171.784l-65.2,26.8c-2.399,1-3.6,3.5-2.899,6c0,0,13,47.3,16.6,60.3c0.5,1.9,2.3,3.3,4.3,3.2
		c7.4-0.1,14.4-0.8,21.301-3.7c8.1-3.3,15.8-9,20.199-16.6c4.301-7.3,5.301-15.8,5.5-24.1c0.101-3.4,0-6.7-0.1-10.1
		c0-1.1,0.7-2,1.7-2.3c1.1-0.3,2.2-0.6,3.2-0.8c1.199-0.3,2.399,0.4,2.8,1.5c0.8,2.5,1.899,5.1,3.2,7.7
		c12.399,24.8,42.399,26.3,65.5,16.8c9.699-4,17.1-9.6,24.399-17c6.3-6.3,12.7-12.8,20.9-16.6c2.399-1.1,4.7-1.8,6.8-2.1
		c2.7-0.4,4.3,0.3,5.3,1.2c1.8,1.5,4.101,2.1,6.4,1.8l8.2-1.2c2.5-0.4,4.6-1.8,5.8-4c13.2-23.6,17.6-51.5,13.7-79
		c-9.5-65.6-67.4-111.7-129.3-102.8c-27.399,3.9-52,18.6-69.199,40.2c-10.7,13.5-19,29.2-23.7,45.7c-4.2,14.7-8.2,35.8,9.2,43.3
		c11.899,5.1,25,3.7,36.3,10.7c4.6,2.9,7.7,6.8,10.399,11.4C382.077,169.384,381.376,171.185,379.876,171.784z M394.577,109.384
		c8.2-1.2,15.8,4.5,17,12.7c1.2,8.2-4.5,15.8-12.7,17c-8.2,1.2-15.8-4.5-17-12.7C380.676,118.185,386.277,110.584,394.577,109.384z"
		/>
</g>
<g>
</g>
<g>
</g>
<g>
</g>
<g>
</g>
<g>
</g>
<g>
</g>
<g>
</g>
<g>
</g>
<g>
</g>
<g>
</g>
<g>
</g>
<g>
</g>
<g>
</g>
<g>
</g>
<g>
</g>
</svg>
