<?xml version="1.0" encoding="iso-8859-1"?>
<!-- Generator: Adobe Illustrator 19.0.0, SVG Export Plug-In . SVG Version: 6.00 Build 0)  -->
<svg version="1.1" id="Layer_1" xmlns="http://www.w3.org/2000/svg" xmlns:xlink="http://www.w3.org/1999/xlink" x="0px" y="0px"
	 viewBox="0 0 290.625 290.625" style="enable-background:new 0 0 290.625 290.625;" xml:space="preserve">
<g>
	<g>
		<path style="fill:#F9BA48;" d="M229.687,135.936c-16.786,0-32.545-3.497-36.52-4.448c-12.75,17.62-19.73,38.827-19.73,60.698
			s6.98,43.078,19.73,60.698c3.975-0.952,19.734-4.448,36.52-4.448s32.545,3.497,36.52,4.448c12.75-17.62,19.73-38.827,19.73-60.698
			s-6.98-43.078-19.73-60.698C262.232,132.439,246.473,135.936,229.687,135.936z"/>
		<path style="fill:#F9BA48;" d="M192.187,140.624h-9.375V89.061c0-31.017-25.233-56.25-56.25-56.25
			c-21.37,0-40.622,11.859-50.259,30.956l-8.367-4.219c11.236-22.28,33.703-36.113,58.626-36.113
			c36.187,0,65.625,29.438,65.625,65.625V140.624z"/>
		<path style="fill:#333333;" d="M145.312,79.686c-12.923,0-23.437,10.514-23.437,23.438s10.514,23.438,23.437,23.438
			c12.923,0,23.437-10.514,23.437-23.438S158.236,79.686,145.312,79.686z M145.312,117.186c-7.753,0-14.062-6.309-14.062-14.063
			s6.309-14.063,14.062-14.063s14.062,6.309,14.062,14.063S153.065,117.186,145.312,117.186z"/>
		<path style="fill:#333333;" d="M265.532,122.877l-16.87-20.241c-4.706-5.648-11.625-8.888-18.975-8.888
			c-5.217,0-10.195,1.659-14.344,4.622c0.084-1.692,0.206-3.375,0.239-5.081c0.956-49.27-37.162-91.078-84.975-93.197
			C87.539-1.829,49.322,27.275,39.778,69.275l-1.031,4.542l22.842,5.353c3.314,0.773,6.262,2.278,8.827,4.223l-7.139,28.547
			l-47.344-9.469l-1.908,4.472C4.72,128.652,0,151.639,0,175.264v7.547h29.602c15.089,0,28.177-10.223,31.828-24.858l3.806-15.22
			l11.32,2.517c1.064,3.989,2.644,7.852,4.819,11.447c6.347,10.481,16.383,17.517,28.266,19.814
			c5.545,1.069,11.241,1.612,16.922,1.612c11.944,0,17.555-3.042,22.509-5.728c3.366-1.823,6.019-3.262,10.702-3.666
			c3.591-0.314,7.453-0.136,11.55,0.497c-1.636,7.509-2.573,15.192-2.573,22.959c0,25.275,8.911,49.889,25.092,69.309l16.87,20.241
			c4.706,5.648,11.625,8.888,18.975,8.888s14.269-3.239,18.98-8.888l16.87-20.241c16.177-19.42,25.087-44.034,25.087-69.309
			S281.714,142.297,265.532,122.877z M229.687,103.124c4.566,0,8.855,2.011,11.775,5.517l16.491,19.786
			c-6.905,1.284-17.405,2.822-28.266,2.822s-21.361-1.537-28.266-2.822l16.491-19.786
			C220.833,105.135,225.122,103.124,229.687,103.124z M50.086,66.843c0.464-1.608,1.027-3.164,1.589-4.725l29.283,6.506
			l-5.269,7.027c-3.497-2.573-7.491-4.566-11.953-5.611L50.086,66.843z M85.842,123.918c1.284-4.289,2.142-8.677,2.658-13.116
			l16.481-9.886l7.219,25.27c0.202,0.68,0.3,1.397,0.3,2.105c0,2.93-1.627,5.564-4.242,6.872l-10.43,5.212l-13.223-2.939
			C84.141,132.932,84.52,128.338,85.842,123.918z M88.866,99.65c-0.455-6.469-2.709-12.459-6.422-17.395l6.394-8.522l12.347,18.525
			L88.866,99.65z M61.003,121.039l-2.639,10.566l-40.289-8.953c1.083-3.188,2.227-6.356,3.511-9.492L61.003,121.039z
			 M52.341,155.685c-2.616,10.448-11.962,17.752-22.739,17.752H9.384c0.155-14.241,2.17-28.214,5.93-41.794l40.777,9.061
			L52.341,155.685z M67.514,133.639l10.223-40.88c1.219,2.855,1.955,5.953,1.955,9.225c0,6.525-0.952,12.994-2.827,19.238
			c-1.383,4.608-1.964,9.37-1.805,14.091L67.514,133.639z M158.976,159.393c-6.637,0.567-10.748,2.798-14.372,4.762
			c-4.359,2.358-8.48,4.594-18.042,4.594c-5.086,0-10.181-0.488-15.141-1.444c-9.248-1.786-17.067-7.28-22.022-15.464
			c-0.82-1.355-1.505-2.775-2.128-4.214l11.775,2.616l13.402-6.698c5.812-2.906,9.427-8.752,9.427-15.253
			c0-1.58-0.22-3.155-0.656-4.683l-8.897-31.148L91.917,61.457l-36.52-8.119C69.211,25.761,98.203,8.014,130.195,9.454
			c42.773,1.894,76.87,39.422,76.012,83.658c-0.103,5.484-0.52,10.856-1.195,16.359l-11.17,13.406
			c-9.173,11.016-15.914,23.728-20.119,37.256C168.511,159.261,163.556,158.989,158.976,159.393z M195.183,136.752
			c6.577,1.411,20.081,3.872,34.505,3.872c14.423,0,27.928-2.461,34.505-3.872c11.03,16.298,17.058,35.634,17.058,55.434
			s-6.028,39.136-17.058,55.434c-6.577-1.411-20.081-3.872-34.505-3.872c-14.423,0-27.928,2.461-34.505,3.872
			c-11.03-16.298-17.058-35.634-17.058-55.434S184.153,153.05,195.183,136.752z M241.462,275.732
			c-2.92,3.506-7.209,5.517-11.775,5.517s-8.855-2.011-11.775-5.517l-16.491-19.786c6.905-1.284,17.405-2.822,28.266-2.822
			s21.361,1.538,28.266,2.822L241.462,275.732z"/>
		<polygon style="fill:#333333;" points="210.937,215.624 210.937,224.999 225,224.999 225,234.374 234.375,234.374 
			234.375,224.999 248.437,224.999 248.437,215.624 234.375,215.624 234.375,206.249 248.437,206.249 248.437,196.874 
			234.375,196.874 234.375,187.499 248.437,187.499 248.437,178.124 234.375,178.124 234.375,168.749 248.437,168.749 
			248.437,159.374 234.375,159.374 234.375,149.999 225,149.999 225,159.374 210.937,159.374 210.937,168.749 225,168.749 
			225,178.124 210.937,178.124 210.937,187.499 225,187.499 225,196.874 210.937,196.874 210.937,206.249 225,206.249 225,215.624 
					"/>
		<rect x="140.625" y="60.936" style="fill:#333333;" width="9.375" height="9.375"/>
		<rect x="159.375" y="60.936" style="fill:#333333;" width="9.375" height="9.375"/>
		<rect x="121.875" y="60.936" style="fill:#333333;" width="9.375" height="9.375"/>
	</g>
</g>
<g>
</g>
<g>
</g>
<g>
</g>
<g>
</g>
<g>
</g>
<g>
</g>
<g>
</g>
<g>
</g>
<g>
</g>
<g>
</g>
<g>
</g>
<g>
</g>
<g>
</g>
<g>
</g>
<g>
</g>
</svg>
