<?xml version="1.0" encoding="iso-8859-1"?>
<!-- Generator: Adobe Illustrator 16.0.0, SVG Export Plug-In . SVG Version: 6.00 Build 0)  -->
<!DOCTYPE svg PUBLIC "-//W3C//DTD SVG 1.1//EN" "http://www.w3.org/Graphics/SVG/1.1/DTD/svg11.dtd">
<svg version="1.1" id="Capa_1" xmlns="http://www.w3.org/2000/svg" xmlns:xlink="http://www.w3.org/1999/xlink" x="0px" y="0px"
	 width="963.035px" height="963.036px" viewBox="0 0 963.035 963.036" style="enable-background:new 0 0 963.035 963.036;"
	 xml:space="preserve">
<g>
	<g>
		<path d="M118.017,490.467c3.8,3.8,10,3.2,13-1.3l22.5-33.4l-128.3-128.3l-23,33c-3.5,5.3-2.8,12.3,1.7,16.8L118.017,490.467z"/>
		<path d="M233.117,865.068v28c0,8.3,6.7,15,15,15h466.7c8.3,0,15-6.7,15-15v-28H233.117z"/>
		<polygon points="192.917,397.167 65.417,269.667 43.817,300.768 171.717,428.767 		"/>
		<rect x="233.117" y="788.667" width="496.7" height="39.6"/>
		<path d="M831.918,489.267c3,4.4,9.199,5,13,1.301l114.199-113.2c4.5-4.5,5.2-11.5,1.7-16.8l-23-33l-128.3,128.3L831.918,489.267z"
			/>
		<polygon points="791.317,428.767 919.218,300.768 897.617,269.667 770.117,397.167 		"/>
		<path d="M233.117,337.368v414.399h496.7V337.368l22,32.7l127.101-127.1l-118.4-169.9c-7.9-11.3-20.9-18.1-34.7-18.1h-488.6
			c-13.8,0-26.8,6.8-34.7,18.1l-118.5,169.9l127.1,127.1L233.117,337.368z M656.018,327.667c0,11.7-5.6,18.2-14.2,26.5l-42.3,40.4
			c29.3,4.899,58,20.399,58,60.5v0.6c0,40.7-29.6,70.6-77.7,70.6c-30.8,0-54-9.6-71.6-24.699c-4.3-3.7-8-10.2-8-17
			c0-12.301,10.5-22.801,22.8-22.801c6.8,0,11.4,2.801,15.1,5.9c12.301,10.5,25.301,16,42.301,16c17.899,0,30.5-10.2,30.5-26.2v-0.6
			c0-17.601-15.7-27.5-42.301-27.5h-7.399c-11.101,0-20.4-9.3-20.4-20.4c0-6.5,2.8-12,10.2-19.399l42-42.3h-66.3
			c-11.101,0-20.4-9.3-20.4-20.4c0-11.1,9.3-20.4,20.4-20.4h105.2C645.817,306.667,656.018,314.667,656.018,327.667z
			 M582.218,91.667l-100.701,100.7l-100.7-100.7H582.218z M303.417,462.767c0-26.199,12-41.6,34.899-52.1
			c-16.7-10.2-27.5-24.1-27.5-47.2v-0.6c0-33,30.2-59.2,75.9-59.2s75.899,25.9,75.899,59.2v0.6c0,23.101-10.8,37-27.5,47.2
			c21.9,11.4,34.9,25.3,34.9,50.9v0.6c0,40.1-35.5,63.5-83.3,63.5s-83.3-24.7-83.3-62.3V462.767L303.417,462.767z"/>
		<path d="M386.717,394.868c18.8,0,30.8-11.101,30.8-26.2v-0.6c0-13.3-11.4-25.3-30.8-25.3c-19.4,0-30.8,11.7-30.8,25v0.6
			C355.917,383.467,367.917,394.868,386.717,394.868z"/>
		<path d="M386.717,486.467c23.399,0,37.3-11.7,37.3-26.8v-0.6c0-16.7-15.7-26.5-37.3-26.5c-21.601,0-37.3,9.899-37.3,26.5v0.6
			C349.417,474.467,363.317,486.467,386.717,486.467z"/>
	</g>
</g>
<g>
</g>
<g>
</g>
<g>
</g>
<g>
</g>
<g>
</g>
<g>
</g>
<g>
</g>
<g>
</g>
<g>
</g>
<g>
</g>
<g>
</g>
<g>
</g>
<g>
</g>
<g>
</g>
<g>
</g>
</svg>
