<svg xmlns="http://www.w3.org/2000/svg" x="0" y="0" width="32" height="32" viewBox="0 0 32 32" class="a"><style>.a{enable-background:new 0 0 32 32;version:1;}.b{fill:#FFF;}</style><path d="M456.036 485.084c0.034 0.256 0.233 0.484 0.493 0.492 1.201 0.03 2.427-0.092 3.567-0.486 0.82-0.283 1.597-0.738 2.153-1.408 0.976-1.174 1.114-2.77 1.29-4.228 0.017-0.139 0.128-0.252 0.267-0.265 0.145-0.017 0.287-0.03 0.428-0.047 0.156-0.018 0.301 0.087 0.328 0.242 0.061 0.342 0.149 0.689 0.264 1.043 1.133 3.413 4.958 4.159 8.087 3.359 1.309-0.334 2.368-0.922 3.442-1.731 0.918-0.691 1.866-1.411 2.983-1.738 0.328-0.098 0.632-0.146 0.904-0.146 0.352 0 0.551 0.118 0.662 0.249 0.195 0.227 0.489 0.352 0.79 0.352h1.073c0.321 0 0.624-0.147 0.819-0.402 2.127-2.773 3.214-6.274 3.214-9.871 0-8.587-6.585-15.574-14.68-15.574 -3.584 0-7.013 1.428-9.608 3.882 -1.617 1.528-2.977 3.395-3.885 5.427 -0.807 1.81-1.711 4.435 0.378 5.718 1.431 0.878 3.135 0.938 4.458 2.041 0.54 0.451 0.864 1.01 1.121 1.658 0.074 0.191-0.037 0.404-0.24 0.448l-8.843 2.235c-0.321 0.08-0.527 0.385-0.486 0.711C455.013 477.046 455.813 483.352 456.036 485.084zM473.776 473.091c1.078 0 1.948 0.869 1.948 1.948 0 1.076-0.87 1.946-1.948 1.946 -1.076 0-1.947-0.87-1.947-1.946C471.829 473.96 472.7 473.091 473.776 473.091zM463.806 477.207c0.051-0.443 0.095-0.804 0.125-1.088 0.013-0.128 0.108-0.233 0.236-0.26 0.047-0.011 0.098-0.021 0.146-0.033 0.131-0.032 0.256 0.078 0.243 0.213 -0.044 0.384-0.084 0.789-0.104 1.212 -0.007 0.147-0.122 0.269-0.27 0.286 -0.014 0-0.027 0.003-0.044 0.003C463.944 477.56 463.782 477.398 463.806 477.207zM461.878 479.785c-0.051 0.414-0.104 0.856-0.165 1.332 -0.298 2.417-2.603 2.883-3.916 2.951 -0.155 0.007-0.293-0.104-0.313-0.261l-0.469-3.504c-0.024-0.164 0.094-0.317 0.26-0.337 0.908-0.115 2.501-0.311 4.266-0.516C461.736 479.426 461.902 479.591 461.878 479.785zM456.907 477.388c1.272-0.27 3.497-0.745 5.124-1.09 0.131-0.027 0.253 0.081 0.236 0.216 -0.034 0.29-0.075 0.627-0.119 1.012 -0.017 0.14-0.125 0.25-0.266 0.263 -1.988 0.23-3.831 0.457-4.827 0.582 -0.166 0.02-0.314-0.096-0.338-0.26l-0.05-0.393C456.65 477.567 456.751 477.421 456.907 477.388z" class="b"/></svg>