<?xml version="1.0" encoding="iso-8859-1"?>
<!-- Generator: Adobe Illustrator 19.0.0, SVG Export Plug-In . SVG Version: 6.00 Build 0)  -->
<svg version="1.1" id="Capa_1" xmlns="http://www.w3.org/2000/svg" xmlns:xlink="http://www.w3.org/1999/xlink" x="0px" y="0px"
	 viewBox="0 0 463.001 463.001" style="enable-background:new 0 0 463.001 463.001;" xml:space="preserve">
<path d="M394.801,224c-9.29,0-18.024,3.618-24.613,10.207c-3.736,3.736-8.703,5.793-13.987,5.793h-28.7
	c-3.452,0-6.458,2.356-7.283,5.708c-0.018,0.075-0.995,3.931-3.638,10.018c-7.707-1.385-13.579-8.125-13.579-16.226v-13.236
	c19.708-18.855,32-45.4,32-74.764v-48c0-57.07-46.43-103.5-103.5-103.5s-103.5,46.43-103.5,103.5v48
	c0,29.364,12.292,55.909,32,74.764V239.5c0,8.093-5.861,14.83-13.559,16.222c-2.64-6.076-3.641-9.948-3.658-10.015
	c-0.825-3.352-3.831-5.708-7.283-5.708h-28.7c-5.284,0-10.25-2.058-14.006-5.813C86.225,227.618,77.491,224,68.201,224
	c-37.606,0-68.2,30.594-68.2,68.2v37.711c0,11.001,5.86,21.351,15.293,27.011l0.707,0.424V431.5c0,17.369,14.131,31.5,31.5,31.5
	h105.611c0.011,0,0.021,0,0.032,0h156.709c0.011,0,0.022,0.001,0.034,0.001c0.01,0,0.02-0.001,0.029-0.001h105.586
	c17.369,0,31.5-14.131,31.5-31.5v-74.153l0.707-0.424c9.433-5.66,15.293-16.01,15.293-27.011V292.2
	C463.001,254.594,432.406,224,394.801,224z M272.088,230.128l2.994-26.95c13.957-2.585,25.369-6.17,34.345-9.763
	C300.965,209.084,287.915,221.925,272.088,230.128z M145.016,169.79c-0.052-0.092-0.112-0.175-0.168-0.264
	c-0.879-4.23-1.452-8.57-1.701-12.995c0.913,0.553,1.848,1.077,2.825,1.536c9.104,4.281,21.822,9.014,38.311,12.387l1.9,17.098
	c-14.605-3.067-25.86-7.259-33.957-11.061C149.184,175.063,146.691,172.746,145.016,169.79z M318.153,169.526
	c-0.055,0.088-0.115,0.172-0.167,0.263c-1.675,2.957-4.168,5.275-7.21,6.703c-8.097,3.802-19.352,7.994-33.957,11.061l1.9-17.098
	c16.489-3.372,29.207-8.106,38.311-12.386c0.977-0.459,1.912-0.983,2.825-1.536C319.605,160.956,319.032,165.296,318.153,169.526z
	 M239.001,239.679v-32.783c7.353-0.206,14.262-0.71,20.737-1.442l-3.445,31.007C250.733,238.085,244.95,239.177,239.001,239.679z
	 M239.001,191.887v-16.992c8.737-0.246,16.845-0.914,24.342-1.885l-1.903,17.131C254.54,191.031,247.066,191.648,239.001,191.887z
	 M320.001,129.604c0,6.373-3.671,12.218-9.354,14.889C295.602,151.567,269.657,160,231.501,160
	c-38.157,0-64.101-8.433-79.146-15.507c-5.683-2.672-9.354-8.516-9.354-14.889V127.5c0-9.098,7.402-16.5,16.5-16.5h144
	c9.098,0,16.5,7.402,16.5,16.5V129.604z M199.659,173.01c7.496,0.971,15.604,1.639,24.342,1.885v16.992
	c-8.065-0.239-15.539-0.856-22.438-1.746L199.659,173.01z M224.001,206.896v32.783c-5.949-0.502-11.733-1.594-17.292-3.218
	l-3.445-31.007C209.738,206.186,216.648,206.689,224.001,206.896z M231.501,255c8.718,0,17.185-1.089,25.279-3.128
	C250.774,259.326,241.59,264,231.501,264s-19.273-4.674-25.279-12.128C214.316,253.911,222.783,255,231.501,255z M224.01,15.32
	c-0.001,0.06-0.009,0.119-0.009,0.18v56c0,4.142,3.358,7.5,7.5,7.5s7.5-3.358,7.5-7.5v-56c0-0.061-0.008-0.119-0.009-0.18
	c44.371,3.737,79.527,40.349,80.958,85.329C315.159,97.703,309.526,96,303.501,96h-144c-6.025,0-11.658,1.703-16.449,4.649
	C144.483,55.669,179.638,19.057,224.01,15.32z M153.574,193.416c8.976,3.593,20.388,7.178,34.344,9.763l2.994,26.95
	C175.087,221.925,162.037,209.085,153.574,193.416z M185.816,244.354C191.503,264.65,210.115,279,231.501,279
	s39.997-14.35,45.685-34.646c3.738-1.846,7.348-3.911,10.815-6.179v1.325c0,5.833,1.6,11.297,4.374,15.987
	C283.356,274.736,258.737,288,231.501,288c-27.217,0-51.857-13.268-60.876-32.511c2.776-4.69,4.376-10.155,4.376-15.989v-1.325
	C178.468,240.442,182.078,242.507,185.816,244.354z M159.539,266.596C172.476,288.658,200.262,303,231.501,303
	c31.261,0,59.027-14.338,71.961-36.404c1.895,1.126,3.918,2.055,6.04,2.768c-1.75,2.894-3.754,5.941-6.053,9.081
	c-17.188,23.48-41.385,40.038-71.948,49.237c-30.308-9.123-54.366-25.493-71.538-48.68c-2.463-3.326-4.604-6.567-6.458-9.641
	C155.625,268.649,157.646,267.721,159.539,266.596z M368.001,409.618V448h-52.222c-10.419-37.428-44.909-64-84.278-64
	s-73.859,26.572-84.278,64H95.001v-38.382c0-8.538-2.821-16.76-7.771-23.471l74.653-82.118
	c14.771,14.624,36.485,29.749,67.546,38.679c1.354,0.39,2.791,0.39,4.145,0c31.061-8.93,52.775-24.055,67.546-38.679l74.653,82.118
	C370.821,392.859,368.001,401.08,368.001,409.618z M300.098,448H162.904c9.893-28.874,37.401-49,68.597-49
	S290.204,419.126,300.098,448z M15.001,329.912V292.2c0-29.334,23.866-53.2,53.2-53.2c5.284,0,10.25,2.058,14.006,5.813
	C88.776,251.382,97.51,255,106.801,255h23.212c2.429,6.797,7.629,18.908,17.436,32.305c1.319,1.802,2.755,3.665,4.304,5.568
	l-75.558,83.114c-0.126-0.077-0.245-0.164-0.372-0.24L23.012,344.06C18.071,341.095,15.001,335.674,15.001,329.912z M31.001,431.5
	v-65.154l37.105,22.263c7.337,4.402,11.895,12.452,11.895,21.009V448h-32.5C38.403,448,31.001,440.598,31.001,431.5z M432.001,431.5
	c0,9.098-7.402,16.5-16.5,16.5h-32.5v-38.382c0-8.557,4.558-16.606,11.895-21.009l37.105-22.263V431.5z M448.001,329.912
	c0,5.762-3.069,11.184-8.011,14.148l-52.812,31.687c-0.127,0.076-0.246,0.163-0.372,0.24l-75.558-83.114
	c1.55-1.903,2.985-3.765,4.304-5.568c9.807-13.397,15.007-25.508,17.436-32.305h23.212c9.29,0,18.024-3.618,24.613-10.207
	c3.736-3.736,8.703-5.793,13.987-5.793c29.334,0,53.2,23.866,53.2,53.2V329.912z"/>
<g>
</g>
<g>
</g>
<g>
</g>
<g>
</g>
<g>
</g>
<g>
</g>
<g>
</g>
<g>
</g>
<g>
</g>
<g>
</g>
<g>
</g>
<g>
</g>
<g>
</g>
<g>
</g>
<g>
</g>
</svg>
